HIERARCHY
ROOT mixamorig:Hips
{
	OFFSET -0.000008 104.274872 1.554316
	CHANNELS 6 Xposition Yposition Zposition Xrotation Yrotation Zrotation
	JOINT mixamorig:Spine
	{
		OFFSET -0.000005 10.181595 0.131519
		CHANNELS 6 Xposition Yposition Zposition Xrotation Yrotation Zrotation
		JOINT mixamorig:Spine1
		{
			OFFSET -0.000000 9.893959 -1.470707
			CHANNELS 6 Xposition Yposition Zposition Xrotation Yrotation Zrotation
			JOINT mixamorig:Spine2
			{
				OFFSET -0.000000 9.220757 -1.370641
				CHANNELS 6 Xposition Yposition Zposition Xrotation Yrotation Zrotation
				JOINT mixamorig:Neck
				{
					OFFSET 0.000001 16.740417 -2.049036
					CHANNELS 6 Xposition Yposition Zposition Xrotation Yrotation Zrotation
					JOINT mixamorig:Head
					{
						OFFSET 0.000000 9.617874 1.685006
						CHANNELS 6 Xposition Yposition Zposition Xrotation Yrotation Zrotation
						JOINT mixamorig:HeadTop_End
						{
							OFFSET 0.000002 22.037354 7.501101
							CHANNELS 6 Xposition Yposition Zposition Xrotation Yrotation Zrotation
							End Site
							{
								OFFSET 0.000168 2310.654297 -282.823242
							}
						}
					}
				}
				JOINT mixamorig:RightShoulder
				{
					OFFSET -4.569970 11.014908 -2.160885
					CHANNELS 6 Xposition Yposition Zposition Xrotation Yrotation Zrotation
					JOINT mixamorig:RightArm
					{
						OFFSET -10.592851 -0.524811 -2.232101
						CHANNELS 6 Xposition Yposition Zposition Xrotation Yrotation Zrotation
						JOINT mixamorig:RightForeArm
						{
							OFFSET -27.841511 0.000031 -0.000004
							CHANNELS 6 Xposition Yposition Zposition Xrotation Yrotation Zrotation
							JOINT mixamorig:RightHand
							{
								OFFSET -28.328831 -0.000015 0.000015
								CHANNELS 6 Xposition Yposition Zposition Xrotation Yrotation Zrotation
								JOINT mixamorig:RightHandThumb1
								{
									OFFSET -2.464806 -1.573990 2.681852
									CHANNELS 6 Xposition Yposition Zposition Xrotation Yrotation Zrotation
									JOINT mixamorig:RightHandThumb2
									{
										OFFSET -3.215179 -1.872803 1.924282
										CHANNELS 6 Xposition Yposition Zposition Xrotation Yrotation Zrotation
										JOINT mixamorig:RightHandThumb3
										{
											OFFSET -2.654831 -1.527969 1.512609
											CHANNELS 6 Xposition Yposition Zposition Xrotation Yrotation Zrotation
											JOINT mixamorig:RightHandThumb4
											{
												OFFSET -2.018814 -1.152008 1.108052
												CHANNELS 6 Xposition Yposition Zposition Xrotation Yrotation Zrotation
												End Site
												{
													OFFSET -188.809540 -114.533607 132.431396
												}
											}
										}
									}
								}
								JOINT mixamorig:RightHandIndex1
								{
									OFFSET -9.108284 -0.517868 2.259835
									CHANNELS 6 Xposition Yposition Zposition Xrotation Yrotation Zrotation
									JOINT mixamorig:RightHandIndex2
									{
										OFFSET -3.699989 0.000000 0.001215
										CHANNELS 6 Xposition Yposition Zposition Xrotation Yrotation Zrotation
										JOINT mixamorig:RightHandIndex3
										{
											OFFSET -2.850006 0.000031 -0.000522
											CHANNELS 6 Xposition Yposition Zposition Xrotation Yrotation Zrotation
											JOINT mixamorig:RightHandIndex4
											{
												OFFSET -2.772186 -0.000015 -0.000020
												CHANNELS 6 Xposition Yposition Zposition Xrotation Yrotation Zrotation
												End Site
												{
													OFFSET -277.218445 0.000000 -0.050231
												}
											}
										}
									}
								}
								JOINT mixamorig:RightHandMiddle1
								{
									OFFSET -9.532516 -0.000031 -0.000023
									CHANNELS 6 Xposition Yposition Zposition Xrotation Yrotation Zrotation
									JOINT mixamorig:RightHandMiddle2
									{
										OFFSET -3.700005 -0.000015 0.003713
										CHANNELS 6 Xposition Yposition Zposition Xrotation Yrotation Zrotation
										JOINT mixamorig:RightHandMiddle3
										{
											OFFSET -2.949974 0.000015 -0.002054
											CHANNELS 6 Xposition Yposition Zposition Xrotation Yrotation Zrotation
											JOINT mixamorig:RightHandMiddle4
											{
												OFFSET -2.946640 0.000000 -0.000156
												CHANNELS 6 Xposition Yposition Zposition Xrotation Yrotation Zrotation
												End Site
												{
													OFFSET -294.664337 0.000000 -0.113670
												}
											}
										}
									}
								}
								JOINT mixamorig:RightHandRing1
								{
									OFFSET -9.103600 -0.043076 -1.865134
									CHANNELS 6 Xposition Yposition Zposition Xrotation Yrotation Zrotation
									JOINT mixamorig:RightHandRing2
									{
										OFFSET -3.379288 0.000000 -0.001055
										CHANNELS 6 Xposition Yposition Zposition Xrotation Yrotation Zrotation
										JOINT mixamorig:RightHandRing3
										{
											OFFSET -2.889687 -0.000015 0.000379
											CHANNELS 6 Xposition Yposition Zposition Xrotation Yrotation Zrotation
											JOINT mixamorig:RightHandRing4
											{
												OFFSET -2.638809 -0.000015 0.000941
												CHANNELS 6 Xposition Yposition Zposition Xrotation Yrotation Zrotation
												End Site
												{
													OFFSET -263.880371 0.000000 0.516020
												}
											}
										}
									}
								}
								JOINT mixamorig:RightHandPinky1
								{
									OFFSET -8.076683 -0.486710 -3.806280
									CHANNELS 6 Xposition Yposition Zposition Xrotation Yrotation Zrotation
									JOINT mixamorig:RightHandPinky2
									{
										OFFSET -3.600014 -0.000015 -0.003747
										CHANNELS 6 Xposition Yposition Zposition Xrotation Yrotation Zrotation
										JOINT mixamorig:RightHandPinky3
										{
											OFFSET -2.099983 0.000000 -0.005739
											CHANNELS 6 Xposition Yposition Zposition Xrotation Yrotation Zrotation
											JOINT mixamorig:RightHandPinky4
											{
												OFFSET -2.115768 -0.000031 -0.003680
												CHANNELS 6 Xposition Yposition Zposition Xrotation Yrotation Zrotation
												End Site
												{
													OFFSET -211.577087 0.000000 -0.350686
												}
											}
										}
									}
								}
							}
						}
					}
				}
				JOINT mixamorig:LeftShoulder
				{
					OFFSET 4.570447 11.014725 -2.160855
					CHANNELS 6 Xposition Yposition Zposition Xrotation Yrotation Zrotation
					JOINT mixamorig:LeftArm
					{
						OFFSET 10.592371 -0.524597 -2.232119
						CHANNELS 6 Xposition Yposition Zposition Xrotation Yrotation Zrotation
						JOINT mixamorig:LeftForeArm
						{
							OFFSET 27.841532 -0.000031 0.000026
							CHANNELS 6 Xposition Yposition Zposition Xrotation Yrotation Zrotation
							JOINT mixamorig:LeftHand
							{
								OFFSET 28.328846 -0.000061 0.000022
								CHANNELS 6 Xposition Yposition Zposition Xrotation Yrotation Zrotation
								JOINT mixamorig:LeftHandThumb1
								{
									OFFSET 2.466141 -1.576172 2.681732
									CHANNELS 6 Xposition Yposition Zposition Xrotation Yrotation Zrotation
									JOINT mixamorig:LeftHandThumb2
									{
										OFFSET 3.217812 -1.872070 1.916482
										CHANNELS 6 Xposition Yposition Zposition Xrotation Yrotation Zrotation
										JOINT mixamorig:LeftHandThumb3
										{
											OFFSET 2.656029 -1.528778 1.514513
											CHANNELS 6 Xposition Yposition Zposition Xrotation Yrotation Zrotation
											JOINT mixamorig:LeftHandThumb4
											{
												OFFSET 2.020889 -1.154053 1.115139
												CHANNELS 6 Xposition Yposition Zposition Xrotation Yrotation Zrotation
												End Site
												{
													OFFSET 190.885437 -115.081749 130.048782
												}
											}
										}
									}
								}
								JOINT mixamorig:LeftHandIndex1
								{
									OFFSET 9.109314 -0.518021 2.259871
									CHANNELS 6 Xposition Yposition Zposition Xrotation Yrotation Zrotation
									JOINT mixamorig:LeftHandIndex2
									{
										OFFSET 3.699989 0.000000 -0.000322
										CHANNELS 6 Xposition Yposition Zposition Xrotation Yrotation Zrotation
										JOINT mixamorig:LeftHandIndex3
										{
											OFFSET 2.850006 0.000000 0.000352
											CHANNELS 6 Xposition Yposition Zposition Xrotation Yrotation Zrotation
											JOINT mixamorig:LeftHandIndex4
											{
												OFFSET 2.774864 -0.000031 -0.000027
												CHANNELS 6 Xposition Yposition Zposition Xrotation Yrotation Zrotation
												End Site
												{
													OFFSET 277.486267 0.000000 -0.009857
												}
											}
										}
									}
								}
								JOINT mixamorig:LeftHandMiddle1
								{
									OFFSET 9.533394 0.000061 0.000044
									CHANNELS 6 Xposition Yposition Zposition Xrotation Yrotation Zrotation
									JOINT mixamorig:LeftHandMiddle2
									{
										OFFSET 3.699989 -0.000015 -0.000231
										CHANNELS 6 Xposition Yposition Zposition Xrotation Yrotation Zrotation
										JOINT mixamorig:LeftHandMiddle3
										{
											OFFSET 2.949997 -0.000015 -0.000059
											CHANNELS 6 Xposition Yposition Zposition Xrotation Yrotation Zrotation
											JOINT mixamorig:LeftHandMiddle4
											{
												OFFSET 2.952896 0.000031 0.000063
												CHANNELS 6 Xposition Yposition Zposition Xrotation Yrotation Zrotation
												End Site
												{
													OFFSET 295.289337 0.000000 0.022810
												}
											}
										}
									}
								}
								JOINT mixamorig:LeftHandRing1
								{
									OFFSET 9.104523 -0.042999 -1.865074
									CHANNELS 6 Xposition Yposition Zposition Xrotation Yrotation Zrotation
									JOINT mixamorig:LeftHandRing2
									{
										OFFSET 3.150009 -0.000031 0.000043
										CHANNELS 6 Xposition Yposition Zposition Xrotation Yrotation Zrotation
										JOINT mixamorig:LeftHandRing3
										{
											OFFSET 2.949982 -0.000015 0.000040
											CHANNELS 6 Xposition Yposition Zposition Xrotation Yrotation Zrotation
											JOINT mixamorig:LeftHandRing4
											{
												OFFSET 2.644348 0.000000 0.000057
												CHANNELS 6 Xposition Yposition Zposition Xrotation Yrotation Zrotation
												End Site
												{
													OFFSET 264.434631 0.000000 0.012105
												}
											}
										}
									}
								}
								JOINT mixamorig:LeftHandPinky1
								{
									OFFSET 8.077789 -0.486847 -3.806259
									CHANNELS 6 Xposition Yposition Zposition Xrotation Yrotation Zrotation
									JOINT mixamorig:LeftHandPinky2
									{
										OFFSET 3.599953 0.000031 0.014727
										CHANNELS 6 Xposition Yposition Zposition Xrotation Yrotation Zrotation
										JOINT mixamorig:LeftHandPinky3
										{
											OFFSET 2.100021 0.000015 0.007705
											CHANNELS 6 Xposition Yposition Zposition Xrotation Yrotation Zrotation
											JOINT mixamorig:LeftHandPinky4
											{
												OFFSET 2.125504 0.000031 0.007517
												CHANNELS 6 Xposition Yposition Zposition Xrotation Yrotation Zrotation
												End Site
												{
													OFFSET 212.550781 0.000000 0.625752
												}
											}
										}
									}
								}
							}
						}
					}
				}
			}
		}
	}
	JOINT mixamorig:RightUpLeg
	{
		OFFSET -8.207787 -6.751648 -1.599560
		CHANNELS 6 Xposition Yposition Zposition Xrotation Yrotation Zrotation
		JOINT mixamorig:RightLeg
		{
			OFFSET -0.000002 -44.370117 0.345942
			CHANNELS 6 Xposition Yposition Zposition Xrotation Yrotation Zrotation
			JOINT mixamorig:RightFoot
			{
				OFFSET 0.000003 -44.423679 -3.043532
				CHANNELS 6 Xposition Yposition Zposition Xrotation Yrotation Zrotation
				JOINT mixamorig:RightToeBase
				{
					OFFSET -0.000002 -8.728671 10.710558
					CHANNELS 6 Xposition Yposition Zposition Xrotation Yrotation Zrotation
					JOINT mixamorig:RightToe_End
					{
						OFFSET -0.000001 -0.000679 9.278119
						CHANNELS 6 Xposition Yposition Zposition Xrotation Yrotation Zrotation
						End Site
						{
							OFFSET 0.000000 -0.067690 927.812134
						}
					}
				}
			}
		}
	}
	JOINT mixamorig:LeftUpLeg
	{
		OFFSET 8.207793 -6.751686 -1.599556
		CHANNELS 6 Xposition Yposition Zposition Xrotation Yrotation Zrotation
		JOINT mixamorig:LeftLeg
		{
			OFFSET -0.000004 -44.370014 0.346954
			CHANNELS 6 Xposition Yposition Zposition Xrotation Yrotation Zrotation
			JOINT mixamorig:LeftFoot
			{
				OFFSET -0.000001 -44.423672 -3.044401
				CHANNELS 6 Xposition Yposition Zposition Xrotation Yrotation Zrotation
				JOINT mixamorig:LeftToeBase
				{
					OFFSET -0.000002 -8.728669 10.710558
					CHANNELS 6 Xposition Yposition Zposition Xrotation Yrotation Zrotation
					JOINT mixamorig:LeftToe_End
					{
						OFFSET -0.000003 -0.000679 9.278133
						CHANNELS 6 Xposition Yposition Zposition Xrotation Yrotation Zrotation
						End Site
						{
							OFFSET 0.000000 -0.068021 927.813477
						}
					}
				}
			}
		}
	}
}
MOTION
Frames: 3
Frame Time: 0.033333
0.000006 104.270477 1.554256 0.000010 0.000003 -0.000113 -0.000005 10.181587 0.131522 0.000001 -0.000003 0.000084 -0.000000 9.893967 -1.470711 0.000001 0.000000 -0.000000 -0.000000 9.220802 -1.370642 0.000000 -0.000000 -0.000000 0.000001 16.740433 -2.049030 0.000000 -0.000000 -0.000000 0.000000 9.617859 1.685014 0.000000 0.000000 0.000000 0.000002 22.037384 7.501101 0.000000 -0.000000 0.000000 -4.569968 11.014880 -2.160881 0.000008 0.000001 -0.000038 -10.592868 -0.524779 -2.231874 75.590291 33.785186 -26.505449 -27.841484 0.000004 0.000554 -44.692021 113.894415 64.562363 -28.328825 -0.000007 0.000025 -0.000321 -0.000046 0.000009 -2.464466 -1.573682 2.682280 124.971958 -4.452534 146.773839 -3.215274 -1.872541 1.924645 150.119594 31.105921 4.368294 -2.654968 -1.527839 1.513063 143.782790 27.978895 -30.961084 -2.018823 -1.151983 1.108064 -0.000002 -0.000004 0.000004 -9.108386 -0.517552 2.260123 101.479419 14.146875 -17.320912 -3.700060 0.000306 0.001510 96.782763 11.186766 -12.559686 -2.850086 0.000371 -0.000265 95.431724 9.124168 -10.027495 -2.772172 -0.000014 -0.000022 0.000001 -0.000000 0.000000 -9.532579 0.000282 0.000251 95.362193 13.791130 -15.283742 -3.700053 0.000335 0.003973 95.644833 9.931098 -10.853360 -2.950041 0.000350 -0.001808 96.477344 10.614092 -11.870883 -2.946621 0.000011 -0.000159 -0.000002 0.000001 -0.000002 -9.103706 -0.042749 -1.864877 95.777981 16.180457 -17.825102 -3.379317 0.000322 -0.000801 95.978549 7.426217 -8.260561 -2.889770 0.000363 0.000656 101.317735 6.476842 -7.952703 -2.638803 -0.000014 0.000941 0.000001 0.000003 0.000001 -8.076756 -0.486404 -3.806001 91.978975 18.866381 -19.358988 -3.600033 0.000299 -0.003495 93.438736 7.023647 -7.087451 -2.100014 0.000329 -0.005473 95.215262 4.110085 -4.267004 -2.115769 -0.000071 -0.003681 0.000002 -0.000000 -0.000003 4.570446 11.014691 -2.160851 -0.000018 0.000010 -0.000021 10.592491 -0.524581 -2.232359 39.725224 -67.759110 27.269602 27.841755 -0.000063 -0.000091 43.600793 -109.520833 59.035094 28.328838 -0.000028 0.000029 0.000021 -0.000088 0.000000 2.466167 -1.576130 2.681885 -57.602721 11.260476 16.237035 3.217854 -1.871966 1.916544 102.771842 154.666697 -153.099223 2.656068 -1.528744 1.514606 92.466951 152.377094 -146.736956 2.020891 -1.154067 1.115144 0.000006 0.000004 0.000002 9.109202 -0.517677 2.260049 32.343866 -169.404729 144.556992 3.699857 0.000289 -0.000148 209.491437 -13.935364 310.164272 2.849853 0.000359 0.000537 26.856162 -167.907497 132.153697 2.774891 -0.000031 -0.000022 -0.000000 0.000002 0.000001 9.533322 0.000400 0.000220 32.016778 -171.545733 151.124151 3.699881 0.000359 -0.000056 210.728097 -10.999856 -38.619577 2.949866 0.000344 0.000102 208.944748 -10.530772 320.695741 2.952859 -0.000047 0.000053 -0.000000 -0.000004 -0.000000 9.104441 -0.042682 -1.864910 -146.816528 -7.471479 -24.724522 3.149886 0.000415 0.000233 212.766868 -9.201585 -30.618696 2.949865 0.000410 0.000225 210.520924 -8.656015 -31.011354 2.644326 0.000014 0.000044 0.000001 -0.000002 -0.000000 8.077686 -0.486496 -3.806080 -145.872091 -8.725560 -28.943558 3.599881 0.000415 0.014912 -148.672441 -5.490848 -20.582116 2.099949 0.000410 0.007880 -151.116733 -2.513178 -11.135152 2.125490 -0.000000 0.007519 -0.000003 -0.000001 -0.000001 -8.207786 -6.751667 -1.599560 -0.077001 -0.000003 0.000080 -0.000002 -44.370110 0.345938 0.153719 -0.000000 -0.000000 0.000000 -44.423679 -3.043532 -0.076700 0.000000 -0.000002 -0.000006 -8.728667 10.710559 -0.000009 -0.000000 -0.000000 -0.000001 -0.000679 9.278123 0.000000 -0.000000 -0.000000 8.207792 -6.751710 -1.599556 -0.074518 -0.000003 0.000081 -0.000002 -44.370014 0.346960 0.148822 0.000002 0.000000 -0.000001 -44.423664 -3.044403 -0.074314 0.000000 -0.000002 -0.000004 -8.728671 10.710558 0.000007 -0.000000 -0.000000 0.000000 -0.000680 9.278137 -0.000000 0.000000 -0.000001 
0.000006 104.270477 1.554256 0.000010 0.000003 -0.000113 -0.000005 10.181587 0.131522 0.000001 -0.000003 0.000084 -0.000000 9.893967 -1.470711 0.000001 0.000000 -0.000000 -0.000000 9.220802 -1.370642 0.000000 -0.000000 -0.000000 0.000001 16.740433 -2.049030 0.000000 -0.000000 -0.000000 0.000000 9.617859 1.685014 0.000000 0.000000 0.000000 0.000002 22.037384 7.501101 0.000000 -0.000000 0.000000 -4.569968 11.014880 -2.160881 0.000008 0.000001 -0.000038 -10.592873 -0.524770 -2.231892 75.508896 32.877529 -25.741134 -27.841501 0.000005 0.000571 -44.936337 114.339791 65.318390 -28.328806 0.000009 0.000027 -0.000322 -0.000042 0.000007 -2.464453 -1.573694 2.682279 125.188884 -5.116529 147.838543 -3.215273 -1.872571 1.924655 150.380220 31.046164 3.649187 -2.654969 -1.527865 1.513061 143.689203 27.973562 -31.248529 -2.018815 -1.152003 1.108073 -0.000000 -0.000005 0.000000 -9.108379 -0.517550 2.260126 101.916675 14.373247 -17.731393 -3.700069 0.000318 0.001505 96.607008 11.098947 -12.422944 -2.850073 0.000370 -0.000263 94.810887 8.901733 -9.677870 -2.772166 0.000003 -0.000022 0.000001 -0.000000 -0.000002 -9.532573 0.000273 0.000258 96.202361 14.163955 -15.922614 -3.700058 0.000335 0.003971 95.224435 9.889293 -10.728464 -2.950055 0.000344 -0.001812 95.069068 10.353674 -11.299134 -2.946638 0.000002 -0.000155 0.000001 -0.000000 -0.000001 -9.103689 -0.042758 -1.864849 96.712617 16.445965 -18.412038 -3.379325 0.000317 -0.000805 95.982128 7.646117 -8.505039 -2.889743 0.000349 0.000640 99.867577 6.402003 -7.662210 -2.638815 -0.000000 0.000944 -0.000001 -0.000001 -0.000004 -8.076748 -0.486399 -3.805995 92.798392 18.893861 -19.661410 -3.600053 0.000306 -0.003497 93.383863 7.495891 -7.579061 -2.099998 0.000320 -0.005482 93.917389 4.325056 -4.400638 -2.115772 -0.000039 -0.003677 -0.000001 0.000001 -0.000005 4.570446 11.014691 -2.160851 -0.000018 0.000010 -0.000021 10.592484 -0.524571 -2.232355 38.664984 -65.173535 25.279280 27.841742 -0.000064 -0.000098 46.013554 -109.086392 61.610048 28.328835 -0.000012 0.000030 0.000022 -0.000089 -0.000001 2.466168 -1.576128 2.681890 -57.237176 13.472702 16.254266 3.217840 -1.871984 1.916569 99.060153 147.791510 -149.477256 2.656078 -1.528754 1.514608 91.237052 146.858875 -144.219526 2.020895 -1.154070 1.115143 0.000001 0.000000 0.000001 9.109232 -0.517657 2.260032 29.513818 -171.970844 150.186448 3.699854 0.000325 -0.000146 210.026159 -10.668734 321.579677 2.849871 0.000356 0.000520 29.663959 -170.092611 143.754882 2.774889 -0.000014 -0.000033 -0.000003 -0.000003 -0.000000 9.533324 0.000429 0.000217 31.722537 -173.365009 156.956914 3.699895 0.000354 -0.000053 213.034734 -9.267838 -30.569615 2.949907 0.000356 0.000120 213.483983 -9.165786 330.152876 2.952873 -0.000030 0.000055 0.000001 0.000001 -0.000000 9.104452 -0.042646 -1.864899 -146.554836 -6.057602 -19.980284 3.149887 0.000407 0.000228 213.702207 -9.845280 -31.749820 2.949863 0.000393 0.000249 213.981767 -9.631484 -30.832584 2.644318 0.000015 0.000033 0.000001 0.000001 -0.000000 8.077698 -0.486494 -3.806072 -144.785735 -7.189357 -23.488949 3.599874 0.000409 0.014903 -148.527067 -5.740245 -21.331210 2.099948 0.000425 0.007864 -150.211446 -3.678903 -15.056595 2.125500 0.000002 0.007517 0.000001 0.000001 0.000001 -8.207786 -6.751667 -1.599560 -0.077001 -0.000003 0.000080 -0.000002 -44.370110 0.345938 0.153719 -0.000000 -0.000000 0.000000 -44.423679 -3.043532 -0.076700 0.000000 -0.000002 -0.000006 -8.728667 10.710559 -0.000009 -0.000000 -0.000000 -0.000001 -0.000679 9.278123 0.000000 -0.000000 -0.000000 8.207792 -6.751710 -1.599556 -0.074518 -0.000003 0.000081 -0.000002 -44.370014 0.346960 0.148822 0.000002 0.000000 -0.000001 -44.423664 -3.044403 -0.074314 0.000000 -0.000002 -0.000004 -8.728671 10.710558 0.000007 -0.000000 -0.000000 0.000000 -0.000680 9.278137 -0.000000 0.000000 -0.000001 
0.000006 104.270477 1.554256 0.000010 0.000003 -0.000113 -0.000005 10.181587 0.131522 0.000001 -0.000003 0.000084 -0.000000 9.893967 -1.470711 0.000001 0.000000 -0.000000 -0.000000 9.220802 -1.370642 0.000000 -0.000000 -0.000000 0.000001 16.740433 -2.049030 0.000000 -0.000000 -0.000000 0.000000 9.617859 1.685014 0.000000 0.000000 0.000000 0.000002 22.037384 7.501101 0.000000 -0.000000 0.000000 -4.569968 11.014880 -2.160881 0.000008 0.000001 -0.000038 -10.592883 -0.524719 -2.231953 75.541134 18.589420 -14.454704 -27.841497 0.000001 0.000580 -45.287829 113.845989 65.277675 -28.328844 0.000018 0.000023 -0.000322 -0.000045 0.000007 -2.464471 -1.573675 2.682278 125.112810 -4.169219 147.095091 -3.215291 -1.872576 1.924640 150.757233 31.043889 3.276832 -2.654945 -1.527874 1.513047 144.258431 27.870845 -31.501054 -2.018826 -1.151988 1.108061 -0.000004 0.000000 -0.000001 -9.108392 -0.517531 2.260133 101.860271 14.883824 -18.337828 -3.700044 0.000320 0.001520 96.857027 11.761298 -13.221787 -2.850066 0.000378 -0.000256 95.181056 9.487133 -10.380592 -2.772160 -0.000014 -0.000026 -0.000001 0.000001 -0.000001 -9.532590 0.000284 0.000238 95.819419 14.771853 -16.488821 -3.700072 0.000335 0.003970 95.553868 10.354338 -11.301265 -2.950066 0.000334 -0.001820 95.427004 10.748741 -11.803360 -2.946637 0.000002 -0.000156 -0.000003 0.000000 -0.000004 -9.103708 -0.042746 -1.864868 95.916504 17.049629 -18.826670 -3.379308 0.000332 -0.000808 95.918580 7.822827 -8.691414 -2.889737 0.000355 0.000641 99.934424 6.472264 -7.754848 -2.638811 -0.000030 0.000942 -0.000003 -0.000001 0.000004 -8.076770 -0.486385 -3.805998 92.312063 19.437508 -20.062306 -3.600045 0.000279 -0.003503 93.465763 7.806921 -7.918593 -2.100011 0.000322 -0.005472 94.120765 4.589924 -4.699966 -2.115763 -0.000028 -0.003678 0.000004 -0.000003 -0.000002 4.570446 11.014691 -2.160851 -0.000018 0.000010 -0.000021 10.592483 -0.524567 -2.232362 40.815670 -62.376757 25.384825 27.841736 -0.000085 -0.000079 49.247146 -109.629030 66.054145 28.328833 -0.000028 0.000023 0.000017 -0.000087 0.000002 2.466172 -1.576119 2.681885 -60.891457 15.224837 17.750798 3.217854 -1.871994 1.916503 97.403736 150.356301 -149.283893 2.656074 -1.528740 1.514615 94.443983 152.772685 -147.902419 2.020887 -1.154086 1.115120 -0.000001 0.000006 0.000004 9.109189 -0.517677 2.260019 28.334620 -170.239296 142.646397 3.699832 0.000314 -0.000163 207.847137 -12.941036 310.810162 2.849855 0.000352 0.000528 26.733558 -168.255918 133.194276 2.774878 -0.000048 -0.000018 0.000001 -0.000001 0.000001 9.533305 0.000396 0.000207 31.162011 -172.048668 152.027034 3.699885 0.000373 -0.000063 211.350396 -9.889807 -34.266028 2.949886 0.000336 0.000120 211.694542 -9.483876 327.415172 2.952866 -0.000032 0.000053 -0.000001 0.000001 -0.000000 9.104450 -0.042666 -1.864914 -145.770007 -6.814485 -21.890212 3.149896 0.000378 0.000228 213.012850 -9.003224 -29.760534 2.949873 0.000390 0.000226 214.056694 -8.678142 -27.832037 2.644323 0.000046 0.000041 -0.000001 -0.000000 0.000001 8.077697 -0.486520 -3.806090 -145.490761 -7.793311 -25.814121 3.599876 0.000404 0.014909 -148.021469 -5.206827 -19.204646 2.099947 0.000402 0.007864 -148.710075 -3.379791 -13.277187 2.125501 0.000001 0.007511 -0.000002 -0.000001 -0.000002 -8.207786 -6.751667 -1.599560 -0.077001 -0.000003 0.000080 -0.000002 -44.370110 0.345938 0.153719 -0.000000 -0.000000 0.000000 -44.423679 -3.043532 -0.076700 0.000000 -0.000002 -0.000006 -8.728667 10.710559 -0.000009 -0.000000 -0.000000 -0.000001 -0.000679 9.278123 0.000000 -0.000000 -0.000000 8.207792 -6.751710 -1.599556 -0.074518 -0.000003 0.000081 -0.000002 -44.370014 0.346960 0.148822 0.000002 0.000000 -0.000001 -44.423664 -3.044403 -0.074314 0.000000 -0.000002 -0.000004 -8.728671 10.710558 0.000007 -0.000000 -0.000000 0.000000 -0.000680 9.278137 -0.000000 0.000000 -0.000001 
